<?xml version="1.0" encoding="utf-8"?>
<!-- Generator: Adobe Illustrator 27.5.0, SVG Export Plug-In . SVG Version: 6.00 Build 0)  -->
<svg version="1.1" xmlns="http://www.w3.org/2000/svg" xmlns:xlink="http://www.w3.org/1999/xlink" x="0px" y="0px"
	 viewBox="0 0 2200 2200" style="enable-background:new 0 0 2200 2200;" xml:space="preserve">
<g id="background">
	<rect x="0" style="fill:#FFFFFF;" width="2200" height="2200"/>
</g>
<g id="Objects">
	<g>
		<g>
			<path style="fill:#8DCE42;" d="M1877.065,1296.865c-25.228-7.844-39.986-33.958-33.714-59.622
				c14.514-59.389,21.849-120.522,21.849-182.333c0-103.32-20.23-203.53-60.12-297.83c-38.53-91.12-93.71-172.96-164-243.25
				c-70.29-70.29-152.13-125.47-243.25-164c-94.3-39.89-194.51-60.12-297.83-60.12c-103.32,0-203.53,20.23-297.83,60.12
				c-91.12,38.53-172.96,93.71-243.25,164s-125.47,152.13-164,243.25c-39.89,94.3-60.12,194.51-60.12,297.83
				c0,103.32,20.23,203.53,60.12,297.83c38.53,91.12,93.71,172.96,164,243.25c70.29,70.29,152.13,125.47,243.25,164
				c94.3,39.89,194.51,60.12,297.83,60.12c52.14,0,104.11-5.26,154.74-15.65c5.74-1.18,11.46-2.42,17.16-3.73
				c50.186-11.512,234.825-54.305,414.613-180.222c4.906-3.436,0.49-10.984-4.908-8.389
				c-79.227,38.091-241.769,108.711-416.605,140.571c4.111-149.629,247.16-201.58,331.15-229.76
				c72.126-24.196,147.151-50.059,202.878-100.097c12.665-11.372,32.852-6.796,39.305,8.956
				c38.827,94.776,42.279,203.88,8.447,300.651c-37.86,108.34-121.93,199.67-226.77,246.38c-69.21,30.82-149.25,42.33-221.45,19.36
				c-50.51-16.07-95.95-50.87-122.77-95.95c-57.54,11.87-116.59,17.88-175.79,17.88c-116.78,0-230.09-22.89-336.79-68.01
				c-103.03-43.58-195.55-105.96-275-185.4c-79.44-79.45-141.82-171.97-185.4-275c-45.12-106.7-68.01-220.01-68.01-336.79
				s22.89-230.09,68.01-336.79c43.58-103.03,105.96-195.56,185.4-275c79.45-79.44,171.97-141.82,275-185.4
				c106.7-45.12,220.01-68.01,336.79-68.01s230.09,22.89,336.79,68.01c103.03,43.58,195.55,105.96,275,185.4
				c79.44,79.44,141.82,171.97,185.4,275c45.12,106.7,68.01,220.01,68.01,336.79c0,69.835-8.298,138.936-24.713,206.094
				C1933.643,1289.003,1904.589,1305.423,1877.065,1296.865L1877.065,1296.865z"/>
		</g>
		<g>
			<path style="fill:#EA7847;" d="M1499.652,1112.974c-18.022-20.761-38.463-41.713-60.959-62.595
				c22.496-20.882,42.937-41.834,60.959-62.595c34.878-40.179,59.098-77.769,71.988-111.724
				c14.608-38.482,14.339-71.292-0.804-97.519c-15.142-26.227-43.421-42.866-84.052-49.455c-35.851-5.815-80.516-3.634-132.75,6.481
				c-26.99,5.227-55.356,12.454-84.688,21.494c-6.837-29.923-14.761-58.101-23.73-84.089c-17.357-50.294-37.8-90.065-60.762-118.206
				c-26.022-31.893-54.571-48.063-84.855-48.063s-58.833,16.171-84.855,48.063c-6.294,7.713-12.397,16.306-18.3,25.744
				c-2.705-0.401-5.472-0.614-8.288-0.614c-30.972,0-56.08,25.108-56.08,56.08c0,17.195,7.746,32.574,19.931,42.861
				c-8.158,24.35-15.427,50.53-21.754,78.225c-29.332-9.041-57.698-16.268-84.688-21.494c-52.236-10.116-96.898-12.296-132.75-6.481
				c-40.631,6.589-68.91,23.229-84.052,49.455c-15.143,26.227-15.412,59.037-0.804,97.519
				c12.891,33.956,37.11,71.545,71.988,111.724c18.022,20.761,38.463,41.713,60.959,62.595
				c-22.496,20.882-42.937,41.834-60.959,62.595c-34.878,40.179-59.098,77.769-71.988,111.724
				c-14.608,38.482-14.339,71.293,0.804,97.52c15.142,26.227,43.421,42.866,84.052,49.455c13.055,2.117,27.276,3.175,42.608,3.175
				c26.772,0,56.928-3.225,90.142-9.656c26.99-5.227,55.356-12.453,84.688-21.494c6.837,29.923,14.761,58.101,23.73,84.089
				c17.357,50.294,37.8,90.064,60.762,118.206c26.022,31.893,54.571,48.063,84.855,48.063s58.833-16.171,84.855-48.063
				c22.962-28.142,43.404-67.912,60.762-118.206c8.969-25.988,16.893-54.166,23.73-84.089c26.349,8.121,51.911,14.769,76.402,19.826
				c3.12,28.018,26.872,49.806,55.722,49.806c24.889,0,45.979-16.22,53.308-38.662c11.333-0.38,22.016-1.374,32.006-2.995
				c40.631-6.589,68.91-23.229,84.052-49.455c15.143-26.227,15.412-59.037,0.804-97.52
				C1558.75,1190.743,1534.53,1153.153,1499.652,1112.974z M1361.054,771.812c47.282-9.158,88.717-11.33,119.821-6.285
				c29.152,4.728,48.663,15.317,57.991,31.473c9.327,16.156,8.742,38.348-1.739,65.958c-11.185,29.461-33.783,64.257-65.354,100.626
				c-17.853,20.566-38.221,41.352-60.71,62.084c-34.787-30.028-73.614-59.69-115.488-88.203
				c-3.756-50.521-10.031-98.977-18.642-144.118C1306.131,784.237,1334.317,776.99,1361.054,771.812z M1181.399,1191.368
				c-27.125,15.661-54.344,30.269-81.399,43.744c-27.055-13.475-54.274-28.083-81.399-43.744
				c-27.125-15.661-53.386-31.929-78.583-48.622c-1.858-30.168-2.816-61.044-2.816-92.366c0-31.322,0.958-62.198,2.816-92.366
				c25.197-16.693,51.458-32.961,78.583-48.622c27.125-15.661,54.344-30.269,81.399-43.744
				c27.055,13.475,54.274,28.083,81.399,43.744c27.125,15.661,53.386,31.929,78.583,48.622c1.858,30.168,2.816,61.044,2.816,92.366
				c0,31.322-0.958,62.198-2.816,92.366C1234.785,1159.439,1208.525,1175.707,1181.399,1191.368z M1256.371,1189.098
				c-3.526,37.082-8.476,72.782-14.759,106.559c-32.393-11.447-65.786-25.01-99.663-40.497
				c19.304-10.076,38.637-20.695,57.91-31.822C1219.131,1212.211,1237.993,1200.778,1256.371,1189.098z M1058.052,1255.16
				c-33.877,15.487-67.27,29.05-99.663,40.497c-6.283-33.777-11.233-69.477-14.759-106.559c18.378,11.68,37.24,23.113,56.512,34.24
				C1019.414,1234.465,1038.747,1245.084,1058.052,1255.16z M901.68,1116.441c-30.351-21.594-58.793-43.732-84.903-66.061
				c26.11-22.33,54.552-44.467,84.903-66.061c-0.926,21.756-1.397,43.807-1.397,66.061
				C900.283,1072.633,900.753,1094.685,901.68,1116.441z M943.629,911.66c3.526-37.082,8.476-72.782,14.759-106.559
				c32.393,11.447,65.786,25.01,99.662,40.497c-19.304,10.076-38.637,20.694-57.909,31.821
				C980.869,888.547,962.007,899.98,943.629,911.66z M1141.949,845.599c33.877-15.487,67.269-29.05,99.662-40.497
				c6.283,33.777,11.233,69.477,14.759,106.559c-18.378-11.68-37.24-23.113-56.512-34.24
				C1180.586,866.293,1161.253,855.674,1141.949,845.599z M1298.32,984.318c30.351,21.594,58.793,43.732,84.903,66.061
				c-26.11,22.33-54.552,44.467-84.903,66.061c0.927-21.756,1.397-43.807,1.397-66.061
				C1299.717,1028.125,1299.247,1006.074,1298.32,984.318z M986.923,692.015c0.544,0.016,1.085,0.041,1.633,0.041
				c30.972,0,56.08-25.108,56.08-56.08c0-14.75-5.703-28.162-15.013-38.173c4.627-7.249,9.344-13.839,14.125-19.698
				c18.671-22.883,37.597-34.485,56.252-34.485s37.581,11.603,56.252,34.485c19.922,24.416,38.757,61.385,54.468,106.911
				c8.885,25.744,16.701,53.777,23.411,83.619c-43.399,15.113-88.5,33.907-134.13,55.914
				c-45.631-22.008-90.732-40.802-134.13-55.914C971.977,741.47,979.009,715.817,986.923,692.015z M728.227,963.584
				c-31.57-36.369-54.169-71.165-65.354-100.626c-10.481-27.61-11.066-49.802-1.739-65.958
				c9.328-16.156,28.839-26.745,57.991-31.473c10.934-1.773,23.14-2.655,36.432-2.655c24.521,0,52.728,3.001,83.39,8.939
				c26.737,5.178,54.922,12.425,84.121,21.535c-8.611,45.141-14.886,93.597-18.642,144.118
				c-41.874,28.513-80.701,58.175-115.488,88.203C766.448,1004.936,746.079,984.15,728.227,963.584z M838.946,1328.947
				c-47.282,9.157-88.717,11.328-119.821,6.285c-29.152-4.729-48.663-15.317-57.991-31.474c-9.327-16.155-8.742-38.348,1.739-65.958
				c11.185-29.461,33.783-64.257,65.354-100.626c17.852-20.566,38.221-41.352,60.71-62.083
				c34.787,30.028,73.614,59.69,115.488,88.203c3.756,50.521,10.031,98.977,18.642,144.118
				C893.869,1316.522,865.683,1323.769,838.946,1328.947z M1210.72,1415.742c-15.711,45.525-34.546,82.494-54.468,106.911
				c-18.671,22.883-37.597,34.484-56.252,34.484s-37.581-11.602-56.252-34.484c-19.922-24.417-38.757-61.386-54.468-106.911
				c-8.884-25.744-16.701-53.776-23.411-83.618c43.399-15.113,88.5-33.907,134.13-55.915c45.631,22.008,90.732,40.802,134.13,55.915
				C1227.421,1361.965,1219.604,1389.998,1210.72,1415.742z M1538.866,1303.758c-9.328,16.156-28.839,26.745-57.991,31.474
				c-8.241,1.336-17.215,2.161-26.824,2.488c-7.93-21.343-28.477-36.552-52.58-36.552c-20.046,0-37.625,10.525-47.54,26.344
				c-24.606-5.049-50.377-11.794-76.999-20.1c8.611-45.141,14.886-93.597,18.642-144.118
				c41.874-28.513,80.701-58.175,115.488-88.203c22.489,20.731,42.858,41.517,60.71,62.083
				c31.57,36.369,54.169,71.165,65.354,100.626C1547.608,1265.411,1548.193,1287.603,1538.866,1303.758z"/>
			<circle style="fill:#EA7847;" cx="1100" cy="1050.379" r="89.548"/>
		</g>
	</g>
</g>
</svg>
